<?xml version="1.0" encoding="UTF-8"?>
<svg id="_レイヤー_1" data-name="レイヤー 1" xmlns="http://www.w3.org/2000/svg" version="1.1" viewBox="0 0 600 500">
  <defs>
    <style>
      .cls-1 {
        fill: #f2f2f2;
      }

      .cls-1, .cls-2, .cls-3, .cls-4, .cls-5 {
        stroke-width: 0px;
      }

      .cls-2 {
        fill: #484f59;
      }

      .cls-3 {
        fill: #bfbfbf;
      }

      .cls-4 {
        fill: #d8d8d8;
      }

      .cls-5 {
        fill: #afcdd8;
      }
    </style>
  </defs>
  <path class="cls-1" d="M262.27,296.34c10.73-9.04,30.4,39.07,21.24,41.57,0,0-30.68,7.25-46.62,11.01-15.94,3.77,8.58-38.44,25.38-52.58Z"/>
  <path class="cls-1" d="M337.77,296.34c-10.73-9.04-30.4,39.07-21.24,41.57,0,0,30.68,7.25,46.62,11.01,15.94,3.77-8.58-38.44-25.38-52.58Z"/>
  <path class="cls-4" d="M345.57,245.88c0,33.1-17.74,62.66-32.62,81.64-4.04,5.16-10.13,8.12-16.68,8.12v-185.5c1.49,0,2.92.31,4.23.89,1.31.58,2.49,1.44,3.49,2.55,15.53,17.22,41.59,52.1,41.59,92.3Z"/>
  <path class="cls-1" d="M308.87,149.17c-3.21-3.56-7.81-5.61-12.61-5.61v6.58c1.49,0,2.92.31,4.23.89,1.31.58,2.49,1.44,3.49,2.55,15.53,17.22,41.59,52.1,41.59,92.3,0,33.1-17.74,62.66-32.62,81.64-4.04,5.16-10.13,8.12-16.68,8.12v6.58c8.59,0,16.56-3.88,21.87-10.64,15.52-19.79,34.02-50.73,34.02-85.7,0-42.4-27.12-78.79-43.28-96.71Z"/>
  <path class="cls-3" d="M296.27,150.14v185.5c-6.56,0-12.64-2.96-16.69-8.12-14.88-18.98-32.62-48.55-32.62-81.64,0-40.2,26.06-75.08,41.59-92.3,2-2.21,4.74-3.43,7.72-3.43Z"/>
  <path class="cls-1" d="M283.66,149.17c-16.16,17.92-43.28,54.31-43.28,96.71,0,34.98,18.5,65.91,34.02,85.7,5.3,6.76,13.28,10.64,21.87,10.64v-6.58c-6.56,0-12.64-2.96-16.69-8.12-14.88-18.98-32.62-48.55-32.62-81.64,0-40.2,26.06-75.08,41.59-92.3,2-2.21,4.74-3.43,7.72-3.43v-6.58c-4.8,0-9.4,2.05-12.61,5.61Z"/>
  <path class="cls-1" d="M297.52,356.18h0c-2.64,0-4.78-2.14-4.78-4.78v-58.45c0-2.64,2.14-4.78,4.78-4.78h0c2.64,0,4.78,2.14,4.78,4.78v58.45c0,2.64-2.14,4.78-4.78,4.78Z"/>
  <g>
    <circle class="cls-5" cx="296.27" cy="192.76" r="19.87" transform="translate(41.08 437.32) rotate(-76.83)"/>
    <path class="cls-2" d="M296.27,216.63c-13.16,0-23.87-10.71-23.87-23.87s10.71-23.87,23.87-23.87,23.87,10.71,23.87,23.87-10.71,23.87-23.87,23.87ZM296.27,176.89c-8.75,0-15.87,7.12-15.87,15.87s7.12,15.87,15.87,15.87,15.87-7.12,15.87-15.87-7.12-15.87-15.87-15.87Z"/>
  </g>
</svg>