<?xml version="1.0" encoding="UTF-8"?>
<svg id="_レイヤー_1" data-name="レイヤー 1" xmlns="http://www.w3.org/2000/svg" version="1.1" viewBox="0 0 600 500">
  <defs>
    <style>
      .cls-1 {
        fill: #a2bcf2;
      }

      .cls-1, .cls-2, .cls-3, .cls-4, .cls-5, .cls-6 {
        stroke-width: 0px;
      }

      .cls-2 {
        fill: #d5e7f2;
      }

      .cls-3 {
        fill: #484f59;
      }

      .cls-4 {
        fill: #f28807;
      }

      .cls-5 {
        fill: #f20444;
      }

      .cls-6 {
        fill: #afcdd8;
      }
    </style>
  </defs>
  <g>
    <path class="cls-4" d="M300.7,369.47c-1.66,0-9.87-15.92-9.87-19.96v-12.92c0-5.71,4.64-10.35,10.35-10.35s10.35,4.64,10.35,10.35v12.92c0,4.41-9.53,19.96-10.83,19.96Z"/>
    <path class="cls-5" d="M301.18,331.13c-3.02,0-5.46,2.44-5.46,5.46v12.92c0,3.02,5.46,11.21,5.46,11.21,0,0,5.46-8.19,5.46-11.21v-12.92c0-3.01-2.44-5.46-5.46-5.46Z"/>
    <path class="cls-4" d="M300.7,369.47c-1.66,0-9.87-15.92-9.87-19.96v-12.92c0-5.71,4.64-10.35,10.35-10.35s10.35,4.64,10.35,10.35v12.92c0,4.41-9.53,19.96-10.83,19.96Z"/>
    <path class="cls-5" d="M301.18,331.13c-3.02,0-5.46,2.44-5.46,5.46v12.92c0,3.02,5.46,11.21,5.46,11.21,0,0,5.46-8.19,5.46-11.21v-12.92c0-3.01-2.44-5.46-5.46-5.46Z"/>
  </g>
  <g>
    <path class="cls-1" d="M275.4,265.36c-1.18-5.81-5.87-7.74-12.27-2.92-6.4,4.82-12.08,9.27-17.73,20.51-5.66,11.25-4.46,20.49-4.84,24.42-.54,5.6,6.58,8.35,9.99,3.87,2.48-3.26,5.37-6.11,8.69-7.9,12.9-6.94,22.42-7.09,22.42-7.09l-6.25-30.89Z"/>
    <path class="cls-1" d="M324.63,265.36c1.18-5.81,5.87-7.74,12.27-2.92,6.4,4.82,12.08,9.27,17.73,20.51,5.66,11.25,4.46,20.49,4.84,24.42.54,5.6-6.58,8.35-9.99,3.87-2.48-3.26-5.37-6.11-8.69-7.9-12.9-6.94-22.42-7.09-22.42-7.09l6.25-30.89Z"/>
    <path class="cls-6" d="M300.47,130.28v179.02h-.49c-16.41,0-29.73-13.31-29.73-29.73v-119.56c0-16.42,13.31-29.73,29.73-29.73h.49Z"/>
    <path class="cls-2" d="M330.69,160.01v119.56c0,16.42-13.31,29.73-29.73,29.73h-.49v-179.02h.49c16.42,0,29.73,13.31,29.73,29.73Z"/>
    <path class="cls-1" d="M313.4,317.13l-2.83-8.99c-.37-1.17-1.46-1.97-2.69-1.97h-14.23c-1.23,0-2.32.8-2.69,1.97l-2.83,8.99c-.57,1.82.78,3.67,2.69,3.67h19.89c1.9,0,3.26-1.85,2.69-3.67Z"/>
  </g>
  <g>
    <rect class="cls-6" x="284.45" y="167.63" width="31.13" height="40.56" rx="9.94" ry="9.94"/>
    <path class="cls-3" d="M305.64,211.19h-11.25c-7.13,0-12.94-5.8-12.94-12.94v-20.68c0-7.13,5.8-12.94,12.94-12.94h11.25c7.13,0,12.94,5.8,12.94,12.94v20.68c0,7.13-5.8,12.94-12.94,12.94ZM294.39,170.63c-3.83,0-6.94,3.11-6.94,6.94v20.68c0,3.83,3.11,6.94,6.94,6.94h11.25c3.83,0,6.94-3.11,6.94-6.94v-20.68c0-3.83-3.11-6.94-6.94-6.94h-11.25Z"/>
  </g>
</svg>